Coordinates
version=1
nRows=27
nColumns=12
inDegrees=yes

Units are S.I. units (second, meters, Newtons, ...)
Angles are in degrees

endheader
time	SC_y	SC_z	SC_x	AC_y	AC_z	AC_x	GH_y	GH_z	GH_yy	EL_x	PS_y
       0.0              -26.51          26.18          28.15          57.18          -4.51         -14.67          131.6          36.19          41.62           34.5          119.0
  0.009365               -26.5          26.18          28.15          57.18         -4.512         -14.67          131.6           36.2          41.62           34.5          118.9
   0.01873               -26.5          26.17          28.16          57.18         -4.514         -14.66          131.6           36.2          41.63           34.5          118.9
   0.02809               -26.5          26.17          28.17          57.18         -4.516         -14.66          131.5           36.2          41.63           34.5          118.9
   0.03746               -26.5          26.17          28.18          57.18         -4.518         -14.65          131.5          36.21          41.63          34.49          118.9
   0.04682               -26.5          26.16          28.19          57.18         -4.521         -14.65          131.5          36.21          41.64          34.49          118.9
   0.05619              -26.49          26.16           28.2          57.17         -4.524         -14.64          131.5          36.22          41.64          34.48          118.9
   0.06555              -26.49          26.15          28.22          57.17         -4.527         -14.64          131.5          36.22          41.65          34.48          118.9
   0.07492              -26.49          26.15          28.23          57.17          -4.53         -14.63          131.5          36.23          41.65          34.48          118.9
   0.08428              -26.48          26.14          28.24          57.17         -4.533         -14.62          131.4          36.23          41.66          34.47          118.8
   0.09365              -26.48          26.13          28.26          57.17         -4.537         -14.61          131.4          36.24          41.66          34.47          118.8
     0.103              -26.48          26.13          28.27          57.17         -4.541         -14.61          131.4          36.24          41.67          34.46          118.8
    0.1124              -26.47          26.12          28.29          57.16         -4.545          -14.6          131.4          36.25          41.68          34.46          118.8
    0.1217              -26.47          26.11          28.31          57.16          -4.55         -14.59          131.4          36.26          41.68          34.45          118.8
    0.1311              -26.46           26.1          28.33          57.16         -4.555         -14.58          131.3          36.27          41.69          34.44          118.7
    0.1405              -26.46          26.09          28.35          57.16          -4.56         -14.57          131.3          36.28           41.7          34.44          118.7
    0.1498              -26.45          26.08          28.38          57.15         -4.566         -14.55          131.3          36.29          41.71          34.43          118.7
    0.1592              -26.45          26.07           28.4          57.15         -4.572         -14.54          131.2           36.3          41.72          34.42          118.6
    0.1686              -26.44          26.06          28.43          57.15         -4.579         -14.53          131.2          36.31          41.73          34.41          118.6
    0.1779              -26.43          26.05          28.46          57.14         -4.587         -14.51          131.1          36.32          41.74           34.4          118.6
    0.1873              -26.42          26.03          28.49          57.14         -4.595         -14.49          131.1          36.33          41.75          34.39          118.5
    0.1967              -26.41          26.02          28.53          57.14         -4.604         -14.47          131.0          36.35          41.77          34.38          118.5
     0.206              -26.41           26.0          28.57          57.13         -4.614         -14.45          131.0          36.37          41.78          34.36          118.4
    0.2154              -26.39          25.98          28.62          57.13         -4.626         -14.43          130.9          36.39           41.8          34.35          118.4
    0.2248              -26.38          25.96          28.67          57.12         -4.638          -14.4          130.8          36.41          41.82          34.33          118.3
    0.2341              -26.37          25.94          28.73          57.11         -4.652         -14.37          130.8          36.43          41.84          34.31          118.2
    0.2435              -26.35          25.91          28.79          57.11         -4.668         -14.34          130.7          36.46          41.87          34.29          118.2
